<svg width="60" height="60" viewBox="0 0 60 60" fill="none" xmlns="http://www.w3.org/2000/svg">
<circle cx="30" cy="30" r="28" stroke="#66FCF1" stroke-width="4"/>
<path d="M30.5 41C31.9587 41 33.3576 41.5795 34.3891 42.6109C35.4205 43.6424 36 45.0413 36 46.5C36 47.9587 35.4205 49.3576 34.3891 50.3891C33.3576 51.4205 31.9587 52 30.5 52C29.0413 52 27.6424 51.4205 26.6109 50.3891C25.5795 49.3576 25 47.9587 25 46.5C25 45.0413 25.5795 43.6424 26.6109 42.6109C27.6424 41.5795 29.0413 41 30.5 41ZM30.5 24.5C31.9587 24.5 33.3576 25.0795 34.3891 26.1109C35.4205 27.1424 36 28.5413 36 30C36 31.4587 35.4205 32.8576 34.3891 33.8891C33.3576 34.9205 31.9587 35.5 30.5 35.5C29.0413 35.5 27.6424 34.9205 26.6109 33.8891C25.5795 32.8576 25 31.4587 25 30C25 28.5413 25.5795 27.1424 26.6109 26.1109C27.6424 25.0795 29.0413 24.5 30.5 24.5V24.5ZM30.5 8C31.9587 8 33.3576 8.57946 34.3891 9.61091C35.4205 10.6424 36 12.0413 36 13.5C36 14.9587 35.4205 16.3576 34.3891 17.3891C33.3576 18.4205 31.9587 19 30.5 19C29.0413 19 27.6424 18.4205 26.6109 17.3891C25.5795 16.3576 25 14.9587 25 13.5C25 12.0413 25.5795 10.6424 26.6109 9.61091C27.6424 8.57946 29.0413 8 30.5 8Z" fill="#66FCF1"/>
</svg>
