<svg width="60" height="60" viewBox="0 0 60 60" fill="none" xmlns="http://www.w3.org/2000/svg">
<path d="M45.2814 31.96C45.3636 31.32 45.4253 30.68 45.4253 30C45.4253 29.32 45.3636 28.68 45.2814 28.04L49.6198 24.74C50.0105 24.44 50.1132 23.9 49.8665 23.46L45.7543 16.54C45.5692 16.22 45.2197 16.04 44.8496 16.04C44.7262 16.04 44.6029 16.06 44.5001 16.1L39.3804 18.1C38.3112 17.3 37.1598 16.64 35.9056 16.14L35.1243 10.84C35.0626 10.36 34.6308 10 34.1167 10H25.8924C25.3783 10 24.9465 10.36 24.8848 10.84L24.1036 16.14C22.8493 16.64 21.6979 17.32 20.6287 18.1L15.509 16.1C15.3856 16.06 15.2623 16.04 15.1389 16.04C14.7894 16.04 14.4398 16.22 14.2548 16.54L10.1426 23.46C9.87526 23.9 9.99863 24.44 10.3893 24.74L14.7277 28.04C14.6454 28.68 14.5837 29.34 14.5837 30C14.5837 30.66 14.6454 31.32 14.7277 31.96L10.3893 35.26C9.99863 35.56 9.89582 36.1 10.1426 36.54L14.2548 43.46C14.4398 43.78 14.7894 43.96 15.1595 43.96C15.2828 43.96 15.4062 43.94 15.509 43.9L20.6287 41.9C21.6979 42.7 22.8493 43.36 24.1036 43.86L24.8848 49.16C24.9465 49.64 25.3783 50 25.8924 50H34.1167C34.6308 50 35.0626 49.64 35.1243 49.16L35.9056 43.86C37.1598 43.36 38.3112 42.68 39.3804 41.9L44.5001 43.9C44.6235 43.94 44.7468 43.96 44.8702 43.96C45.2197 43.96 45.5692 43.78 45.7543 43.46L49.8665 36.54C50.1132 36.1 50.0105 35.56 49.6198 35.26L45.2814 31.96ZM41.2103 28.54C41.2925 29.16 41.3132 29.58 41.3132 30C41.3132 30.42 41.272 30.86 41.2103 31.46L40.9225 33.72L42.7524 35.12L44.973 36.8L43.5337 39.22L40.9225 38.2L38.7841 37.36L36.9336 38.72C36.0495 39.36 35.2065 39.84 34.3635 40.18L32.184 41.04L31.855 43.3L31.4438 46H28.5652L28.1746 43.3L27.8456 41.04L25.6661 40.18C24.782 39.82 23.9596 39.36 23.1372 38.76L21.266 37.36L19.0866 38.22L16.4754 39.24L15.0361 36.82L17.2567 35.14L19.0866 33.74L18.7988 31.48C18.7371 30.86 18.696 30.4 18.696 30C18.696 29.6 18.7371 29.14 18.7988 28.54L19.0866 26.28L17.2567 24.88L15.0361 23.2L16.4754 20.78L19.0866 21.8L21.225 22.64L23.0755 21.28C23.9596 20.64 24.8026 20.16 25.6456 19.82L27.8251 18.96L28.154 16.7L28.5652 14H31.4233L31.814 16.7L32.1429 18.96L34.3224 19.82C35.2065 20.18 36.0289 20.64 36.8514 21.24L38.7224 22.64L40.9019 21.78L43.5132 20.76L44.9524 23.18L42.7524 24.88L40.9225 26.28L41.2103 28.54ZM30.0045 22C25.4605 22 21.7801 25.58 21.7801 30C21.7801 34.42 25.4605 38 30.0045 38C34.5485 38 38.229 34.42 38.229 30C38.229 25.58 34.5485 22 30.0045 22ZM30.0045 34C27.7428 34 25.8924 32.2 25.8924 30C25.8924 27.8 27.7428 26 30.0045 26C32.2662 26 34.1167 27.8 34.1167 30C34.1167 32.2 32.2662 34 30.0045 34Z" fill="#66FCF1"/>
<circle cx="30" cy="30" r="28" stroke="#66FCF1" stroke-width="4"/>
</svg>
