<svg width="314" height="667" viewBox="0 0 314 667" fill="none" xmlns="http://www.w3.org/2000/svg">
<rect width="314" height="667" fill="#0B0C10"/>
<path d="M27.2133 348.5L0 278V665H164.117L154.346 661.199C129.229 651.427 116.803 623.133 126.603 598.027C131.809 584.689 130.89 569.737 124.089 557.137L113.223 537.006C106.345 524.263 106.571 508.863 113.821 496.327C128.479 470.981 115.957 438.576 88.0634 429.672L77.5297 426.31C61.1376 421.078 48.1577 408.445 42.4823 392.202L27.2133 348.5Z" fill="#1F2833"/>
<path d="M138.67 68.5928L123.925 2H314V460L290.768 442.325C269.47 426.122 255.555 402.058 252.136 375.516L250.845 365.494C249.719 356.754 245.678 348.65 239.375 342.491C222.251 325.759 213.722 302.113 216.222 278.302L223.544 208.561C227.117 174.528 210.136 141.622 180.326 124.816C159.086 112.841 143.941 92.3993 138.67 68.5928Z" fill="#1F2833"/>
</svg>
